<svg xmlns="http://www.w3.org/2000/svg" xmlns:xlink="http://www.w3.org/1999/xlink" preserveAspectRatio="xMidYMid" width="239.5" height="160.5" viewBox="0 0 239.5 160.5">
  <defs>
    <style>
      .cls-1 {
        fill: #fff;
        fill-rule: evenodd;
      }
    </style>
  </defs>
  <g>
    <path d="M88.331,109.534 L88.331,122.947 L40.656,138.418 L40.656,122.653 L73.809,111.770 L73.809,100.593 L103.971,89.416 L103.971,102.828 L88.331,109.534 ZM61.521,54.767 L35.827,54.767 L28.007,-0.000 L32.476,-0.000 L40.295,49.178 L62.638,49.178 L76.043,65.944 L88.331,55.885 L90.565,59.238 L74.926,71.532 L61.521,54.767 ZM76.252,62.579 L75.725,62.980 L63.538,46.943 L48.115,46.943 L41.412,46.943 L41.412,40.237 L41.412,16.978 C39.411,15.818 38.061,13.657 38.061,11.177 C38.061,7.473 41.062,4.470 44.764,4.470 C48.466,4.470 51.466,7.473 51.466,11.177 C51.466,13.657 50.117,15.818 48.115,16.978 L48.115,31.295 L63.755,31.295 L63.755,35.766 L48.115,35.766 L48.115,40.237 L67.106,40.237 L67.106,40.558 L77.134,53.754 L79.971,51.370 L84.282,56.505 L76.584,62.975 L76.252,62.579 ZM38.430,58.858 L55.887,58.165 L61.939,73.444 L48.224,85.388 L33.695,75.683 L38.430,58.858 ZM49.089,87.192 L48.909,86.991 L67.248,70.621 L70.223,73.957 L66.692,77.109 L66.871,77.310 L48.533,93.680 L45.558,90.344 L49.089,87.192 ZM67.106,84.945 C67.106,78.772 72.108,73.768 78.277,73.768 C84.447,73.768 89.449,78.772 89.449,84.945 C89.449,91.118 84.447,96.122 78.277,96.122 C72.108,96.122 67.106,91.118 67.106,84.945 ZM78.277,89.416 C80.745,89.416 82.746,87.414 82.746,84.945 C82.746,82.476 80.745,80.474 78.277,80.474 C75.810,80.474 73.809,82.476 73.809,84.945 C73.809,87.414 75.810,89.416 78.277,89.416 ZM59.286,112.887 C53.117,112.887 48.115,107.883 48.115,101.710 C48.115,95.537 53.117,90.533 59.286,90.533 C65.456,90.533 70.458,95.537 70.458,101.710 C70.458,107.883 65.456,112.887 59.286,112.887 ZM59.286,97.239 C56.818,97.239 54.818,99.241 54.818,101.710 C54.818,104.180 56.818,106.181 59.286,106.181 C61.754,106.181 63.755,104.180 63.755,101.710 C63.755,99.241 61.754,97.239 59.286,97.239 Z" class="cls-1"/>
    <path d="M238.218,117.508 C237.524,117.059 236.880,116.834 236.284,116.834 C235.708,116.834 235.220,116.993 234.819,117.310 C234.419,117.627 234.104,118.201 233.875,119.031 C233.645,119.861 233.530,121.600 233.530,124.246 L233.530,129.051 L229.414,129.051 L229.414,113.494 L233.237,113.494 L233.237,115.706 C233.892,114.661 234.480,113.973 235.003,113.641 C235.525,113.309 236.118,113.143 236.782,113.143 C237.720,113.143 238.623,113.401 239.492,113.919 L238.218,117.508 ZM215.119,125.308 C215.754,125.987 216.545,126.326 217.492,126.326 C218.137,126.326 218.679,126.150 219.118,125.799 C219.558,125.447 219.889,124.881 220.114,124.100 L224.216,124.788 C223.688,126.292 222.856,127.437 221.718,128.223 C220.580,129.009 219.157,129.402 217.448,129.402 C214.743,129.402 212.741,128.519 211.442,126.751 C210.417,125.335 209.904,123.548 209.904,121.390 C209.904,118.812 210.578,116.793 211.926,115.332 C213.273,113.873 214.977,113.143 217.038,113.143 C219.352,113.143 221.179,113.907 222.517,115.435 C223.854,116.964 224.494,119.305 224.435,122.459 L214.123,122.459 C214.152,123.680 214.484,124.629 215.119,125.308 ZM220.349,119.939 C220.319,118.748 220.012,117.842 219.426,117.222 C218.840,116.602 218.127,116.292 217.287,116.292 C216.388,116.292 215.646,116.619 215.060,117.273 C214.475,117.928 214.186,118.817 214.196,119.939 L220.349,119.939 ZM196.898,129.051 L190.629,113.494 L194.950,113.494 L197.880,121.434 L198.729,124.085 C198.954,123.411 199.095,122.967 199.154,122.752 C199.291,122.312 199.437,121.873 199.594,121.434 L202.552,113.494 L206.786,113.494 L200.604,129.051 L196.898,129.051 ZM185.840,116.834 C185.264,116.834 184.776,116.993 184.376,117.310 C183.975,117.627 183.660,118.201 183.431,119.031 C183.201,119.861 183.086,121.600 183.086,124.246 L183.086,129.051 L178.970,129.051 L178.970,113.494 L182.793,113.494 L182.793,115.706 C183.448,114.661 184.036,113.973 184.559,113.641 C185.081,113.309 185.674,113.143 186.338,113.143 C187.276,113.143 188.179,113.401 189.048,113.919 L187.774,117.508 C187.080,117.059 186.436,116.834 185.840,116.834 ZM164.675,125.308 C165.310,125.987 166.101,126.326 167.048,126.326 C167.693,126.326 168.235,126.150 168.674,125.799 C169.114,125.447 169.445,124.881 169.670,124.100 L173.772,124.788 C173.244,126.292 172.412,127.437 171.274,128.223 C170.136,129.009 168.713,129.402 167.004,129.402 C164.299,129.402 162.297,128.519 160.998,126.751 C159.973,125.335 159.460,123.548 159.460,121.390 C159.460,118.812 160.134,116.793 161.482,115.332 C162.829,113.873 164.533,113.143 166.594,113.143 C168.909,113.143 170.735,113.907 172.073,115.435 C173.410,116.964 174.050,119.305 173.992,122.459 L163.679,122.459 C163.708,123.680 164.040,124.629 164.675,125.308 ZM169.905,119.939 C169.875,118.748 169.568,117.842 168.982,117.222 C168.396,116.602 167.683,116.292 166.843,116.292 C165.944,116.292 165.202,116.619 164.617,117.273 C164.031,117.928 163.742,118.817 163.752,119.939 L169.905,119.939 ZM149.377,119.295 C151.569,119.793 153.100,120.403 153.969,121.126 C154.828,121.858 155.258,122.879 155.258,124.187 C155.258,125.613 154.662,126.839 153.471,127.864 C152.279,128.890 150.517,129.402 148.183,129.402 C146.064,129.402 144.386,128.973 143.151,128.113 C141.916,127.254 141.108,126.087 140.727,124.612 L144.858,123.982 C145.033,124.783 145.390,125.391 145.927,125.806 C146.464,126.221 147.216,126.429 148.183,126.429 C149.247,126.429 150.048,126.233 150.585,125.843 C150.946,125.569 151.127,125.203 151.127,124.744 C151.127,124.432 151.029,124.173 150.834,123.968 C150.629,123.773 150.170,123.592 149.457,123.426 C146.137,122.693 144.032,122.025 143.144,121.419 C141.913,120.579 141.298,119.412 141.298,117.918 C141.298,116.570 141.830,115.438 142.895,114.520 C143.959,113.602 145.609,113.143 147.846,113.143 C149.975,113.143 151.557,113.489 152.592,114.183 C153.627,114.876 154.340,115.902 154.731,117.259 L150.849,117.977 C150.683,117.371 150.368,116.907 149.904,116.585 C149.440,116.263 148.778,116.102 147.919,116.102 C146.835,116.102 146.059,116.253 145.590,116.556 C145.277,116.771 145.121,117.049 145.121,117.391 C145.121,117.684 145.258,117.933 145.531,118.138 C145.902,118.411 147.184,118.797 149.377,119.295 ZM130.562,129.402 C129.674,129.402 128.797,129.180 127.933,128.736 C127.069,128.292 126.324,127.635 125.699,126.766 L125.699,129.051 L121.876,129.051 L121.876,107.576 L125.992,107.576 L125.992,115.311 C127.262,113.865 128.765,113.143 130.504,113.143 C132.398,113.143 133.966,113.829 135.206,115.201 C136.446,116.573 137.066,118.543 137.066,121.111 C137.066,123.768 136.434,125.813 135.169,127.249 C133.905,128.685 132.369,129.402 130.562,129.402 ZM131.881,117.471 C131.236,116.685 130.411,116.292 129.405,116.292 C128.419,116.292 127.598,116.675 126.944,117.442 C126.290,118.209 125.963,119.373 125.963,120.936 C125.963,122.547 126.217,123.738 126.725,124.510 C127.437,125.604 128.385,126.150 129.566,126.150 C130.475,126.150 131.248,125.762 131.888,124.986 C132.528,124.209 132.848,122.986 132.848,121.316 C132.848,119.539 132.525,118.257 131.881,117.471 ZM106.511,129.417 C103.318,129.417 100.779,128.443 98.894,126.495 C97.009,124.546 96.067,121.863 96.067,118.445 C96.067,116.258 96.394,114.422 97.049,112.938 C97.537,111.844 98.203,110.862 99.048,109.993 C99.893,109.124 100.818,108.480 101.824,108.060 C103.162,107.493 104.705,107.210 106.453,107.210 C109.617,107.210 112.149,108.191 114.048,110.154 C115.947,112.117 116.897,114.847 116.897,118.343 C116.897,121.810 115.955,124.522 114.070,126.480 C112.185,128.438 109.666,129.417 106.511,129.417 ZM110.796,112.732 C109.717,111.522 108.284,110.916 106.497,110.916 C104.710,110.916 103.269,111.529 102.176,112.754 C101.082,113.980 100.535,115.828 100.535,118.299 C100.535,120.730 101.096,122.574 102.219,123.829 C103.342,125.084 104.768,125.711 106.497,125.711 C108.225,125.711 109.644,125.088 110.752,123.843 C111.860,122.598 112.415,120.730 112.415,118.240 C112.415,115.779 111.875,113.943 110.796,112.732 Z" class="cls-1"/>
    <path d="M233.562,155.652 C233.054,157.019 232.659,157.961 232.378,158.477 C232.003,159.172 231.573,159.682 231.089,160.006 C230.605,160.330 230.027,160.492 229.355,160.492 C228.948,160.492 228.495,160.406 227.995,160.234 L227.761,158.254 C228.222,158.379 228.624,158.441 228.968,158.441 C229.437,158.441 229.812,158.363 230.093,158.207 C230.374,158.051 230.605,157.832 230.784,157.551 C230.917,157.340 231.132,156.816 231.429,155.980 C231.468,155.863 231.530,155.691 231.616,155.465 L226.894,142.996 L229.167,142.996 L231.757,150.203 C232.093,151.117 232.394,152.078 232.659,153.086 C232.902,152.117 233.191,151.172 233.527,150.250 L236.187,142.996 L238.296,142.996 L233.562,155.652 ZM217.676,155.242 C217.254,155.000 216.957,154.682 216.786,154.287 C216.614,153.893 216.528,153.062 216.528,151.797 L216.528,144.637 L214.981,144.637 L214.981,142.996 L216.528,142.996 L216.528,139.914 L218.626,138.648 L218.626,142.996 L220.747,142.996 L220.747,144.637 L218.626,144.637 L218.626,151.914 C218.626,152.516 218.663,152.902 218.737,153.074 C218.811,153.246 218.932,153.383 219.100,153.484 C219.268,153.586 219.508,153.637 219.821,153.637 C220.055,153.637 220.364,153.609 220.747,153.555 L221.051,155.418 C220.458,155.543 219.926,155.605 219.458,155.605 C218.692,155.605 218.098,155.484 217.676,155.242 ZM205.541,142.996 L207.650,142.996 L207.650,155.441 L205.541,155.441 L205.541,142.996 ZM205.541,138.262 L207.650,138.262 L207.650,140.687 L205.541,140.687 L205.541,138.262 ZM194.870,138.262 L196.980,138.262 L196.980,155.441 L194.870,155.441 L194.870,138.262 ZM184.317,142.996 L186.426,142.996 L186.426,155.441 L184.317,155.441 L184.317,142.996 ZM184.317,138.262 L186.426,138.262 L186.426,140.687 L184.317,140.687 L184.317,138.262 ZM171.080,155.723 C169.611,155.723 168.459,155.109 167.623,153.883 L167.623,155.441 L165.666,155.441 L165.666,138.262 L167.775,138.262 L167.775,144.391 C168.666,143.273 169.802,142.715 171.185,142.715 C171.951,142.715 172.675,142.869 173.359,143.178 C174.043,143.486 174.605,143.920 175.047,144.479 C175.488,145.037 175.834,145.711 176.084,146.500 C176.334,147.289 176.459,148.133 176.459,149.031 C176.459,151.164 175.931,152.813 174.877,153.977 C173.822,155.141 172.556,155.723 171.080,155.723 ZM173.336,145.609 C172.691,144.836 171.912,144.449 170.998,144.449 C170.076,144.449 169.279,144.850 168.607,145.650 C167.935,146.451 167.599,147.609 167.599,149.125 C167.599,150.617 167.802,151.695 168.209,152.359 C168.873,153.445 169.771,153.988 170.904,153.988 C171.826,153.988 172.623,153.588 173.295,152.787 C173.966,151.986 174.302,150.793 174.302,149.207 C174.302,147.582 173.980,146.383 173.336,145.609 ZM155.106,154.961 C154.188,155.469 153.186,155.723 152.101,155.723 C150.358,155.723 148.950,155.164 147.876,154.047 C146.802,152.930 146.265,151.320 146.265,149.219 C146.265,146.914 146.905,145.207 148.186,144.098 C149.257,143.176 150.561,142.715 152.101,142.715 C153.811,142.715 155.210,143.276 156.296,144.396 C157.382,145.518 157.925,147.067 157.925,149.043 C157.925,150.645 157.685,151.904 157.204,152.822 C156.724,153.740 156.024,154.453 155.106,154.961 ZM154.708,145.650 C154.009,144.858 153.139,144.461 152.101,144.461 C151.046,144.461 150.171,144.856 149.476,145.645 C148.780,146.434 148.433,147.625 148.433,149.219 C148.433,150.812 148.780,152.006 149.476,152.799 C150.171,153.592 151.046,153.988 152.101,153.988 C153.147,153.988 154.018,153.590 154.714,152.793 C155.409,151.996 155.757,150.781 155.757,149.148 C155.757,147.609 155.407,146.443 154.708,145.650 ZM136.180,141.062 L131.188,155.441 L129.137,155.441 L124.168,140.816 L124.168,155.441 L121.977,155.441 L121.977,138.262 L125.399,138.262 L129.465,150.426 C129.840,151.559 130.113,152.406 130.285,152.969 C130.481,152.344 130.785,151.426 131.199,150.215 L135.313,138.262 L138.371,138.262 L138.371,155.441 L136.180,155.441 L136.180,141.062 Z" class="cls-1"/>
    <g>
      <path d="M-0.011,8.738 C-0.011,8.738 20.774,2.112 21.397,2.792 C22.019,3.471 22.217,3.492 21.726,4.485 C21.236,5.478 -0.011,8.738 -0.011,8.738 Z" class="cls-1"/>
      <path d="M1.875,21.169 C1.875,21.169 23.250,16.837 23.797,17.580 C24.345,18.322 24.539,18.364 23.946,19.298 C23.353,20.232 1.875,21.169 1.875,21.169 Z" class="cls-1"/>
      <path d="M0.600,12.867 C0.600,12.867 24.984,6.506 25.582,7.209 C26.179,7.911 26.376,7.939 25.848,8.913 C25.321,9.887 0.600,12.867 0.600,12.867 Z" class="cls-1"/>
      <path d="M1.312,17.412 C1.312,17.412 25.696,11.051 26.293,11.754 C26.891,12.456 27.087,12.484 26.560,13.458 C26.033,14.432 1.312,17.412 1.312,17.412 Z" class="cls-1"/>
    </g>
  </g>
</svg>
